# xmcd CD database file
#
# Track frame offsets:
#	150
#	17485
#	36880
#	58142
#	79575
#	94715
#	112035
#	130055
#	147652
#	166852
#
# Disc length: 2474 seconds
#
# Revision: 3
# Processed by: cddbd v1.5.2PL0 Copyright (c) Steve Scherf et al.
# Submitted via: CDex 1.51
#
DISCID=8009a80a
DTITLE=Blindside Blues Band - Blindside Blues Band
DYEAR=1993
DGENRE=Blues Rock
TTITLE0=Bad Premonition
TTITLE1=Renegade
TTITLE2=Hit The Highway
TTITLE3=Blues In My Soul
TTITLE4=Flying
TTITLE5=Back Against The Wall
TTITLE6=Powerful Thing
TTITLE7=Burning Cities
TTITLE8=Early Grave
TTITLE9=Winner Takes It All
EXTD=YEAR: 1993
EXTT0=
EXTT1=
EXTT2=
EXTT3=
EXTT4=
EXTT5=
EXTT6=
EXTT7=
EXTT8=
EXTT9=
PLAYORDER=
